<svg width="444" height="101" viewBox="0 0 444 101" fill="none" xmlns="http://www.w3.org/2000/svg">
<path d="M0.23 99V-7.86781e-06H22.142V85.272L19.172 99H0.23ZM40.028 100.452C35.804 100.452 32.064 99.506 28.808 97.614C25.596 95.722 22.89 93.324 20.69 90.42C18.49 87.516 16.818 84.502 15.674 81.378C14.574 78.21 14.024 75.372 14.024 72.864L21.812 70.158C21.9 71.962 22.252 73.7 22.868 75.372C23.528 77 24.386 78.452 25.442 79.728C26.542 80.96 27.818 81.95 29.27 82.698C30.722 83.402 32.262 83.754 33.89 83.754C36.574 83.754 38.906 83.05 40.886 81.642C42.91 80.19 44.472 78.144 45.572 75.504C46.672 72.82 47.222 69.608 47.222 65.868C47.222 62.172 46.694 59.004 45.638 56.364C44.582 53.724 43.086 51.722 41.15 50.358C39.214 48.95 36.948 48.246 34.352 48.246C32.636 48.246 31.074 48.598 29.666 49.302C28.258 49.962 27.004 50.864 25.904 52.008C24.804 53.108 23.88 54.384 23.132 55.836C22.384 57.288 21.812 58.762 21.416 60.258L14.354 57.486C14.354 54.978 14.904 52.25 16.004 49.302C17.148 46.31 18.82 43.472 21.02 40.788C23.264 38.06 26.014 35.838 29.27 34.122C32.57 32.406 36.376 31.548 40.688 31.548C45.704 31.548 50.368 32.78 54.68 35.244C58.992 37.664 62.446 41.426 65.042 46.53C67.682 51.59 69.002 58.036 69.002 65.868C69.002 71.764 68.21 76.89 66.626 81.246C65.042 85.558 62.886 89.144 60.158 92.004C57.43 94.82 54.328 96.932 50.852 98.34C47.42 99.748 43.812 100.452 40.028 100.452ZM74.7296 99V83.094H92.3516V15.906H77.2376V-7.86781e-06H114.264V83.094H131.952V99H74.7296ZM135.318 99V83.094H154.26V48.906H138.024V33H176.04V83.094H193.464V99H135.318ZM154.062 4.356H176.106V24.024H154.062V4.356ZM202.968 99V33H222.042L224.814 47.058V99H202.968ZM245.538 99V62.37C245.538 59.026 245.208 56.32 244.548 54.252C243.888 52.184 242.854 50.688 241.446 49.764C240.038 48.796 238.256 48.312 236.1 48.312C234.472 48.312 232.954 48.62 231.546 49.236C230.182 49.852 228.972 50.688 227.916 51.744C226.86 52.756 226.024 53.9 225.408 55.176C224.792 56.452 224.396 57.772 224.22 59.136L219.93 56.76C219.93 53.812 220.414 50.864 221.382 47.916C222.35 44.968 223.824 42.262 225.804 39.798C227.828 37.29 230.336 35.288 233.328 33.792C236.364 32.296 239.928 31.548 244.02 31.548C247.452 31.548 250.576 32.076 253.392 33.132C256.252 34.188 258.738 35.838 260.85 38.082C262.962 40.282 264.59 43.12 265.734 46.596C266.878 50.028 267.45 54.164 267.45 59.004V99H245.538ZM274.233 99V-7.86781e-06H296.145V56.166H305.319V71.94H296.145V99H274.233ZM319.905 99L288.555 62.238L311.655 61.314L345.447 99H319.905ZM311.853 65.934L291.063 62.04L319.113 33H344.589L311.853 65.934ZM371.264 100.452C368.14 100.452 364.928 100.056 361.628 99.264C358.328 98.516 355.138 97.306 352.058 95.634C349.022 93.962 346.294 91.784 343.874 89.1C341.454 86.372 339.518 83.094 338.066 79.266C336.658 75.438 335.954 70.972 335.954 65.868C335.954 60.808 336.658 56.364 338.066 52.536C339.518 48.708 341.454 45.452 343.874 42.768C346.294 40.084 349.022 37.906 352.058 36.234C355.138 34.562 358.328 33.352 361.628 32.604C364.928 31.812 368.14 31.416 371.264 31.416C374.432 31.416 377.666 31.812 380.966 32.604C384.266 33.352 387.434 34.562 390.47 36.234C393.506 37.906 396.234 40.084 398.654 42.768C401.118 45.452 403.054 48.708 404.462 52.536C405.87 56.364 406.574 60.808 406.574 65.868C406.574 70.972 405.87 75.438 404.462 79.266C403.054 83.094 401.118 86.372 398.654 89.1C396.234 91.784 393.506 93.962 390.47 95.634C387.434 97.306 384.266 98.516 380.966 99.264C377.666 100.056 374.432 100.452 371.264 100.452ZM371.264 84.678C373.068 84.678 374.762 84.326 376.346 83.622C377.93 82.874 379.338 81.752 380.57 80.256C381.802 78.76 382.77 76.824 383.474 74.448C384.178 72.072 384.53 69.212 384.53 65.868C384.53 62.568 384.178 59.73 383.474 57.354C382.77 54.978 381.802 53.042 380.57 51.546C379.338 50.05 377.93 48.95 376.346 48.246C374.762 47.542 373.068 47.19 371.264 47.19C369.504 47.19 367.81 47.542 366.182 48.246C364.598 48.95 363.19 50.05 361.958 51.546C360.77 53.042 359.802 54.978 359.054 57.354C358.35 59.73 357.998 62.568 357.998 65.868C357.998 69.212 358.35 72.072 359.054 74.448C359.802 76.824 360.77 78.76 361.958 80.256C363.19 81.752 364.598 82.874 366.182 83.622C367.81 84.326 369.504 84.678 371.264 84.678ZM421.674 79.332H443.916V99H421.674V79.332Z" fill="white"/>
</svg>
